<svg viewBox="100 -1700 3600 1800" role="img" aria-hidden="true" version="1.1" xmlns="http://www.w3.org/2000/svg" id="glyph496"><g transform="scale(1,-1)"><path d="M100-100l3600 0 0 1800-3600 0 0-1800 z" fill="#CC0000"/><path d="M702 1588c13-49 22-74 28-74l71 0c0-1-20-16-59-45 0-4 6-28 19-70l0-3-59 42-3 0-59-42-2 0c15 45 22 69 22 71l-59 47 70 0c5 0 14 25 28 74l3 0 z M879 1126c0-37-14-73-42-107l0-2c41-41 62-65 62-74-3-12-10-21-20-25l-11 0c-10 0-34 22-73 65-34-13-61-20-79-20-42 0-82 17-121 51-11-13-20-20-28-20-24-41-47-67-67-76-23 0-34 9-34 25 0 20 23 45 70 74 14 18 29 30 45 36l12-5 14 11c28-27 60-40 95-40 30 2 45 6 45 12l-146 149-3 0c-30-28-45-43-45-45l-53 50c0 2 34 35 101 99l87-12-53-56c77-79 129-132 157-157l3 0c19 20 28 44 28 73 0 62-38 137-115 225l0 3c114-72 171-149 171-234 z M683 1503l-37 0-6-3c0-2 12-10 34-25 0-8-4-21-11-39l3-6c12 10 24 18 36 25 21-15 31-24 31-25l6 3c-10 25-14 39-14 42 13 6 24 14 33 25l0 3-44 0c-5 26-10 39-15 39l-2 0c-5-26-10-39-14-39 z" fill="#FFDE00"/></g></svg>